PathFileType	4	(X/Y/Z)	E:\3-PhD\Data\MocapData\ElaboratedData\012\pre\dynamicElaborations\Run_baselineB1\Run_baselineB1.trc
DataRate	CameraRate	NumFrames	NumMarkers	Units	OrigDataRate	OrigDataStartFrame	OrigNumFrames
200	200	4	56	mm	200	719	93
Frame#	Time	FHD			LBHD			RBHD			C7			T10			CLAV			LSHO			LUUPA			LMUPA			LDUPA			LLEP			LMEP			LRAD			LUL			LRFIN			RSHO			RUPA1			RMUPA			RDUPA			RLEP			RMEP			RRAD			RUL			RUFIN			LASI			RASI			USACR			LSACR			RSACR			LTHI1			LTHI2			LTHI3			LTHI4			LLFC			LTIB1			LTIB2			LTIB3			LTIB4			LHEE			LMT1			LMT5			LMT2			RTHI			RTHI2			RTHI3			RTHI4			RLFC			RTIB1			RTIB2			RTIB3			RTIB4			RLMAL			RHEE			RMT1			RMT2			RMT5		
		X1	Y1	Z1	X2	Y2	Z2	X3	Y3	Z3	X4	Y4	Z4	X5	Y5	Z5	X6	Y6	Z6	X7	Y7	Z7	X8	Y8	Z8	X9	Y9	Z9	X10	Y10	Z10	X11	Y11	Z11	X12	Y12	Z12	X13	Y13	Z13	X14	Y14	Z14	X15	Y15	Z15	X16	Y16	Z16	X17	Y17	Z17	X18	Y18	Z18	X19	Y19	Z19	X20	Y20	Z20	X21	Y21	Z21	X22	Y22	Z22	X23	Y23	Z23	X24	Y24	Z24	X25	Y25	Z25	X26	Y26	Z26	X27	Y27	Z27	X28	Y28	Z28	X29	Y29	Z29	X30	Y30	Z30	X31	Y31	Z31	X32	Y32	Z32	X33	Y33	Z33	X34	Y34	Z34	X35	Y35	Z35	X36	Y36	Z36	X37	Y37	Z37	X38	Y38	Z38	X39	Y39	Z39	X40	Y40	Z40	X41	Y41	Z41	X42	Y42	Z42	X43	Y43	Z43	X44	Y44	Z44	X45	Y45	Z45	X46	Y46	Z46	X47	Y47	Z47	X48	Y48	Z48	X49	Y49	Z49	X50	Y50	Z50	X51	Y51	Z51	X52	Y52	Z52	X53	Y53	Z53	X54	Y54	Z54	X55	Y55	Z55	X56	Y56	Z56	
719	3.590000	-701.489082	1767.623142	340.484570	-845.043141	1726.961535	228.341201	-841.921346	1719.557211	380.356733	-876.384010	1558.668224	311.484957	-997.709771	1230.741860	338.662048	-739.941452	1456.580903	315.156556	-760.679618	1568.788659	172.048965	-739.679302	1361.103719	63.357631	-701.908353	1341.102428	86.945560	-729.753529	1291.895131	64.518359	-693.027424	1208.958766	76.228495	-755.845069	1188.251617	138.306361	-529.574697	1241.228093	296.909844	-497.345273	1179.377758	262.557127	-449.025900	1256.649758	327.963429	-786.709737	1515.269000	488.226369	-1002.702483	1442.588041	561.670028	-994.693315	1402.167950	590.059851	-1053.032870	1401.025421	582.809841	-1109.833272	1358.604266	605.719685	-1118.933434	1316.886457	535.814098	-1061.287170	1095.514674	703.750761	-1129.992609	1103.171705	740.018692	-1055.700371	1023.792874	755.196548	-935.707558	985.518702	183.909129	-894.530128	976.744277	412.614970	-1054.351628	1113.759348	350.555884	-1076.412368	1087.280445	327.830138	-1066.530277	1085.825647	384.418483	-1099.055922	756.818915	134.187028	-1076.707600	675.981082	122.901746	-1030.507942	667.726783	125.345671	-1113.094641	628.550258	133.187141	-1150.122838	471.741944	138.144679	-1230.178096	306.238301	213.378476	-1284.461773	289.770808	148.435266	-1261.564743	267.706284	181.856116	-1317.701217	215.587213	219.054375	-1513.415136	117.480880	251.598388	-1316.987679	51.043593	264.937011	-1350.255944	40.062694	166.482390	-1308.944291	46.379617	210.590998	-849.051166	731.198584	483.009000	-784.927645	710.992593	469.801932	-760.689849	728.422842	453.369866	-765.035731	630.246051	456.648062	-735.075642	537.796260	421.139299	-815.746788	444.797370	372.439307	-908.395388	470.940201	422.465424	-897.873467	432.634072	400.387251	-940.544922	409.083852	368.983491	-1121.084631	405.167118	384.233071	-1187.040631	427.268392	336.723641	-1075.793928	231.819928	322.866366	-1066.386430	238.400393	365.913349	-1103.756170	264.921806	418.467667	
720	3.595000	-671.319972	1769.315967	342.164040	-814.660205	1728.598832	229.789131	-811.684355	1721.123865	381.873228	-845.696855	1559.893795	311.290274	-965.390457	1231.002844	333.454253	-708.896186	1459.044454	317.652371	-727.336450	1571.871269	175.317914	-699.540498	1365.918448	66.081874	-662.624073	1346.239524	90.932567	-688.666692	1296.926968	67.038982	-651.964311	1214.641500	78.892095	-716.441739	1192.469801	139.113735	-496.376789	1253.279679	304.475296	-461.442165	1192.103904	271.458526	-417.271829	1271.319191	337.370924	-758.486291	1517.514574	488.918811	-975.259010	1450.153798	558.661482	-968.911975	1410.073630	587.815604	-1027.119392	1410.007073	578.884836	-1085.309188	1369.239565	601.572400	-1093.624090	1325.678989	532.541376	-1041.242075	1107.702842	707.231651	-1110.381104	1117.480164	742.238036	-1037.491307	1036.560579	760.550532	-899.687958	983.584014	183.635543	-861.153250	979.353535	413.250735	-1020.527624	1113.140576	347.134878	-1042.138670	1086.324393	324.471808	-1033.125677	1085.713879	381.371880	-1072.707821	758.987058	133.935016	-1054.637728	676.917736	123.397592	-1008.733072	666.715311	126.288911	-1093.489086	631.568847	133.446043	-1138.827547	477.065635	138.565834	-1221.157718	311.840273	212.498420	-1275.444136	296.433213	147.158780	-1252.866288	273.892516	180.476508	-1309.372934	221.711533	217.033859	-1506.127998	128.906436	248.552744	-1315.855423	50.764645	264.323845	-1349.095522	40.487076	165.939777	-1307.988807	45.386291	210.183684	-809.256389	738.674383	481.370893	-744.263440	721.337212	467.897784	-720.914604	740.107636	451.580291	-720.973274	641.472031	454.444054	-687.246014	548.943338	419.458319	-761.679634	449.896170	370.729765	-855.659737	469.083672	421.597156	-842.502107	431.557556	399.284232	-883.697591	405.419434	367.942804	-1063.824040	388.303847	384.777958	-1131.703742	405.078971	337.621353	-1005.259550	219.072603	323.968500	-996.262306	226.459928	366.863680	-1035.201229	250.329535	419.521515	
721	3.600000	-641.012726	1771.114718	344.049631	-784.151833	1730.489516	231.445824	-781.366812	1722.953901	383.597755	-815.030789	1561.212704	311.247312	-932.920918	1231.348693	327.927453	-677.922592	1461.724933	320.285973	-694.273018	1575.074531	178.759255	-660.037176	1371.095989	68.846773	-623.948834	1351.641350	94.830601	-648.193694	1302.333242	69.380909	-611.587009	1220.610810	81.111045	-677.680801	1196.794635	139.352347	-463.966133	1263.618082	311.445840	-426.499548	1203.338392	279.386574	-386.443531	1283.644059	346.431205	-730.279472	1519.870651	489.712836	-947.472660	1457.179873	555.894376	-942.681499	1417.402937	585.505462	-1000.712610	1418.272918	575.091631	-1060.093074	1379.016765	597.290840	-1067.755526	1333.812010	528.956753	-1019.673955	1119.032042	709.650767	-1089.046775	1130.607715	743.697850	-1017.395327	1048.342623	764.501710	-863.195083	981.844868	183.660279	-827.570103	982.492607	414.043481	-986.396970	1112.532876	343.421084	-1007.610548	1085.471103	320.690637	-999.522862	1085.642284	377.818993	-1045.476403	761.765174	133.556321	-1031.593773	678.646923	124.026974	-986.058138	666.560326	127.599875	-1072.812666	635.477533	133.775650	-1126.292103	483.731218	139.299883	-1210.762505	318.495178	211.742683	-1265.075460	304.208493	146.008808	-1242.764363	281.202453	179.116697	-1299.441290	228.657756	214.913090	-1496.851614	141.541452	245.360157	-1314.192571	50.822584	263.638151	-1347.531513	41.393420	165.363292	-1306.667436	44.589282	209.712999	-770.392954	745.746501	479.858183	-704.701973	731.012318	466.308331	-682.163838	751.032735	450.279606	-678.397247	652.042822	452.430379	-641.018426	559.596277	418.277498	-708.486148	454.810607	369.469719	-803.460604	466.918177	420.916678	-787.593334	430.332547	398.465432	-826.986637	401.594893	367.125175	-1005.715880	370.950074	384.908587	-1075.020792	382.152005	337.976441	-933.866397	207.094200	324.472310	-925.476441	215.159448	367.247698	-965.922822	236.058488	419.962654	
722	3.605000	-610.574043	1772.951740	346.118161	-753.536695	1732.553269	233.297923	-750.973669	1724.971772	385.511639	-784.391889	1562.563428	311.338429	-900.225141	1231.716050	322.275386	-647.012183	1464.558699	323.021554	-661.528478	1578.330874	182.336804	-621.267599	1376.518134	71.572744	-585.943660	1357.192168	98.528734	-608.464926	1307.990838	71.507292	-571.926169	1226.739659	82.900240	-639.545305	1201.131837	139.098193	-432.185518	1272.124107	317.848137	-392.368374	1212.931798	286.357950	-356.341130	1293.479607	355.167549	-702.091450	1522.274241	490.624764	-919.449384	1463.598439	553.362174	-916.080212	1424.085971	583.164447	-973.906936	1425.745976	571.489712	-1034.276146	1387.808467	592.963910	-1041.393859	1341.200636	525.128886	-996.577002	1129.357549	711.109126	-1066.063747	1142.325376	744.444470	-995.386537	1059.008328	767.182114	-826.395295	980.264721	183.883227	-793.815724	985.985078	414.832115	-952.004408	1111.953676	339.459790	-972.876595	1084.727746	316.539223	-965.740436	1085.599109	373.798869	-1017.337132	765.037980	133.028606	-1007.474105	681.065986	124.733125	-962.384887	667.179922	129.221716	-1050.924140	640.116122	134.148953	-1112.211199	491.509925	140.317413	-1198.757084	326.039509	211.137192	-1253.148529	312.977342	145.029268	-1231.053682	289.495551	177.822400	-1287.731210	236.331496	212.754583	-1485.384256	155.357473	242.216952	-1311.831945	51.420887	262.913097	-1345.458124	43.023565	164.813724	-1304.854466	44.179542	209.197976	-732.459693	752.225646	478.479130	-666.226510	739.763372	465.060133	-644.386203	760.921632	449.489613	-637.340166	661.658073	450.646927	-596.446657	569.466699	417.631163	-656.303386	459.377246	368.740285	-751.908402	464.345732	420.478621	-733.297390	428.879221	397.991665	-770.546239	397.562122	366.605516	-946.796511	353.207392	384.650509	-1016.994618	358.643762	337.824301	-861.816787	196.043265	324.360137	-854.202076	204.610965	367.054830	-896.040895	222.181411	419.785287	
